<svg width="104" height="24"><g fill="currentColor" fill-rule="evenodd"><path d="M3.78 11.65a1.047 1.047 0 0 1 1.482 0l3.697 3.697a1.047 1.047 0 0 1 0 1.481l-2.604 2.604a1.047 1.047 0 0 1-1.48 0l-3.698-3.697a1.047 1.047 0 0 1 0-1.482zm5.237-5.237a1.047 1.047 0 0 1 1.481 0l8.876 8.876a1.047 1.047 0 0 1 0 1.481l-2.604 2.604a1.047 1.047 0 0 1-1.48 0l-8.877-8.876a1.047 1.047 0 0 1 0-1.48zm5.236-5.236a1.047 1.047 0 0 1 1.482 0L29.789 15.23a1.047 1.047 0 0 1 0 1.481l-2.604 2.604a1.047 1.047 0 0 1-1.481 0L11.65 5.262a1.047 1.047 0 0 1 0-1.481zM43.509 10.377V7.52h-2.374V5.723c0-.99.415-1.567 1.152-1.567.254 0 .507.07.715.185l1.06-2.742c-.576-.254-1.268-.392-2.051-.392-2.235 0-4.147 1.567-4.147 4.286V7.52h-1.82v2.857h1.82v8.387h3.271v-8.387h2.374zm5.016 8.387V7.52H45.23v11.244h3.295zm-3.209-14.2c0 .868.729 1.597 1.596 1.597.868 0 1.596-.729 1.596-1.596 0-.868-.728-1.596-1.596-1.596-.867 0-1.596.728-1.596 1.596zm8.992 7.61c.046-1.497 1.129-2.28 2.097-2.28 1.083 0 2.073.806 2.073 2.372v6.498h3.249v-6.682c0-3.018-1.751-4.838-4.078-4.838-1.544 0-2.673.76-3.41 1.82.046-.323.07-.6.07-.784v-.76h-3.227v11.244h3.226v-6.59zm9.153-4.654v2.995h1.567v8.249h3.226v-8.249h1.59V7.52h-1.59V3.511h-3.226v4.01h-1.567zm13.3 11.451c-3.294 0-5.875-2.511-5.875-5.852s2.58-5.852 5.876-5.852c3.294 0 5.875 2.511 5.875 5.852 0 3.34-2.58 5.852-5.875 5.852zm0-2.857c1.636 0 2.72-1.267 2.72-2.995 0-1.705-1.084-2.972-2.72-2.972-1.658 0-2.741 1.267-2.741 2.972 0 1.728 1.129 2.995 2.742 2.995zm10.836-2.903c0-1.843 1.336-2.81 3.018-2.81V7.243c-1.475 0-2.488.921-3.134 2.142.07-.437.116-.852.116-1.106v-.76H84.37v11.244h3.226V13.21zm5.477 10.272h3.364l7.24-15.963h-3.41l-2.257 5.253c-.208.484-.415 1.106-.415 1.152-.023-.069-.184-.691-.369-1.152L95.062 7.52h-3.387l4.193 10-2.794 5.963z"></path></g></svg>